# xmcd CD database file
#
# Track frame offsets:
#	150
#	31207
#	64625
#	103065
#	125752
#	150240
#	171663
#	187978
#
# Disc length: 3308 seconds
#
# Revision: 0
# Processed by: cddbd v1.5.2PL0 Copyright (c) Steve Scherf et al.
# Submitted via: CDex 1.70beta3
#
DISCID=650cea08
DTITLE=Saitoh Tetsu - Tetsu Saitoh Contrabass Solo at Ort
DYEAR=2010
DGENRE=Jazz
TTITLE0=harmonics,
TTITLE1=Eflat tuning
TTITLE2=on E string
TTITLE3=gunawa
TTITLE4=korean
TTITLE5=highest
TTITLE6=four beat
TTITLE7=mirage
EXTD=YEAR: 2010
EXTT0=
EXTT1=
EXTT2=
EXTT3=
EXTT4=
EXTT5=
EXTT6=
EXTT7=
PLAYORDER=
